<svg xmlns="http://www.w3.org/2000/svg" width="980" height="620" viewBox="0 0 980 620">
<rect width="100%" height="100%" fill="white"/>
<text x="490.0" y="30" text-anchor="middle" font-family="Arial" font-size="20" font-weight="700">Comparisons: Random</text>
<line x1="78" y1="544.0" x2="750" y2="544.0" stroke="#ddd"/>
<text x="68" y="548.0" text-anchor="end" font-family="Arial" font-size="12">0</text>
<line x1="78" y1="446.0" x2="750" y2="446.0" stroke="#ddd"/>
<text x="68" y="450.0" text-anchor="end" font-family="Arial" font-size="12">12k</text>
<line x1="78" y1="348.0" x2="750" y2="348.0" stroke="#ddd"/>
<text x="68" y="352.0" text-anchor="end" font-family="Arial" font-size="12">23k</text>
<line x1="78" y1="250.0" x2="750" y2="250.0" stroke="#ddd"/>
<text x="68" y="254.0" text-anchor="end" font-family="Arial" font-size="12">35k</text>
<line x1="78" y1="152.0" x2="750" y2="152.0" stroke="#ddd"/>
<text x="68" y="156.0" text-anchor="end" font-family="Arial" font-size="12">47k</text>
<line x1="78" y1="54.0" x2="750" y2="54.0" stroke="#ddd"/>
<text x="68" y="58.0" text-anchor="end" font-family="Arial" font-size="12">58k</text>
<line x1="78.0" y1="54" x2="78.0" y2="544" stroke="#eee"/>
<text x="78.0" y="568" text-anchor="middle" font-family="Arial" font-size="12">100</text>
<line x1="286.6" y1="54" x2="286.6" y2="544" stroke="#eee"/>
<text x="286.6" y="568" text-anchor="middle" font-family="Arial" font-size="12">1000</text>
<line x1="518.3" y1="54" x2="518.3" y2="544" stroke="#eee"/>
<text x="518.3" y="568" text-anchor="middle" font-family="Arial" font-size="12">2000</text>
<line x1="750.0" y1="54" x2="750.0" y2="544" stroke="#eee"/>
<text x="750.0" y="568" text-anchor="middle" font-family="Arial" font-size="12">3000</text>
<line x1="78" y1="544" x2="750" y2="544" stroke="#333"/>
<line x1="78" y1="54" x2="78" y2="544" stroke="#333"/>
<text x="414.0" y="596" text-anchor="middle" font-family="Arial" font-size="14">n</text>
<text x="22" y="299.0" text-anchor="middle" font-family="Arial" font-size="14" transform="rotate(-90 22 299.0)">Character comparisons</text>
<polyline points="78.0,537.5 101.2,529.1 124.3,517.9 147.5,509.7 170.7,496.7 193.9,486.0 217.0,470.5 240.2,448.8 263.4,438.3 286.6,425.3 309.7,404.8 332.9,392.9 356.1,383.1 379.2,365.1 402.4,348.6 425.6,315.9 448.8,313.9 471.9,303.9 495.1,271.3 518.3,250.3 541.4,262.5 564.6,234.2 587.8,205.5 611.0,202.4 634.1,180.4 657.3,168.5 680.5,132.6 703.7,122.4 726.8,110.5 750.0,90.3" fill="none" stroke="#1f77b4" stroke-width="2"/>
<circle cx="78.0" cy="537.5" r="3" fill="#1f77b4"/>
<circle cx="193.9" cy="486.0" r="3" fill="#1f77b4"/>
<circle cx="309.7" cy="404.8" r="3" fill="#1f77b4"/>
<circle cx="425.6" cy="315.9" r="3" fill="#1f77b4"/>
<circle cx="541.4" cy="262.5" r="3" fill="#1f77b4"/>
<circle cx="657.3" cy="168.5" r="3" fill="#1f77b4"/>
<rect x="780" y="68" width="14" height="4" fill="#1f77b4"/>
<text x="802" y="73" font-family="Arial" font-size="12">Quicksort</text>
<polyline points="78.0,539.1 101.2,531.6 124.3,522.8 147.5,513.2 170.7,503.2 193.9,492.5 217.0,481.3 240.2,470.1 263.4,458.4 286.6,447.0 309.7,434.7 332.9,422.2 356.1,409.2 379.2,396.1 402.4,383.4 425.6,370.6 448.8,356.8 471.9,342.9 495.1,329.4 518.3,316.3 541.4,302.3 564.6,287.8 587.8,273.1 611.0,259.2 634.1,244.0 657.3,229.8 680.5,214.1 703.7,199.9 726.8,185.1 750.0,169.9" fill="none" stroke="#d62728" stroke-width="2"/>
<circle cx="78.0" cy="539.1" r="3" fill="#d62728"/>
<circle cx="193.9" cy="492.5" r="3" fill="#d62728"/>
<circle cx="309.7" cy="434.7" r="3" fill="#d62728"/>
<circle cx="425.6" cy="370.6" r="3" fill="#d62728"/>
<circle cx="541.4" cy="302.3" r="3" fill="#d62728"/>
<circle cx="657.3" cy="229.8" r="3" fill="#d62728"/>
<rect x="780" y="92" width="14" height="4" fill="#d62728"/>
<text x="802" y="97" font-family="Arial" font-size="12">Mergesort</text>
<polyline points="78.0,538.3 101.2,532.2 124.3,524.9 147.5,518.4 170.7,512.2 193.9,499.1 217.0,491.8 240.2,479.2 263.4,470.1 286.6,466.0 309.7,448.5 332.9,443.6 356.1,425.8 379.2,426.0 402.4,416.2 425.6,403.4 448.8,398.2 471.9,379.8 495.1,368.9 518.3,352.4 541.4,348.1 564.6,334.5 587.8,314.4 611.0,334.4 634.1,306.5 657.3,316.6 680.5,274.5 703.7,283.2 726.8,282.1 750.0,254.1" fill="none" stroke="#2ca02c" stroke-width="2"/>
<circle cx="78.0" cy="538.3" r="3" fill="#2ca02c"/>
<circle cx="193.9" cy="499.1" r="3" fill="#2ca02c"/>
<circle cx="309.7" cy="448.5" r="3" fill="#2ca02c"/>
<circle cx="425.6" cy="403.4" r="3" fill="#2ca02c"/>
<circle cx="541.4" cy="348.1" r="3" fill="#2ca02c"/>
<circle cx="657.3" cy="316.6" r="3" fill="#2ca02c"/>
<rect x="780" y="116" width="14" height="4" fill="#2ca02c"/>
<text x="802" y="121" font-family="Arial" font-size="12">String quicksort</text>
<polyline points="78.0,539.8 101.2,534.1 124.3,527.9 147.5,521.2 170.7,514.5 193.9,507.5 217.0,500.3 240.2,492.8 263.4,485.3 286.6,478.4 309.7,470.9 332.9,463.0 356.1,454.7 379.2,446.6 402.4,438.9 425.6,431.1 448.8,422.6 471.9,413.9 495.1,405.8 518.3,398.2 541.4,389.5 564.6,380.9 587.8,371.9 611.0,363.9 634.1,354.5 657.3,346.1 680.5,336.8 703.7,328.6 726.8,320.0 750.0,310.6" fill="none" stroke="#9467bd" stroke-width="2"/>
<circle cx="78.0" cy="539.8" r="3" fill="#9467bd"/>
<circle cx="193.9" cy="507.5" r="3" fill="#9467bd"/>
<circle cx="309.7" cy="470.9" r="3" fill="#9467bd"/>
<circle cx="425.6" cy="431.1" r="3" fill="#9467bd"/>
<circle cx="541.4" cy="389.5" r="3" fill="#9467bd"/>
<circle cx="657.3" cy="346.1" r="3" fill="#9467bd"/>
<rect x="780" y="140" width="14" height="4" fill="#9467bd"/>
<text x="802" y="145" font-family="Arial" font-size="12">String mergesort LCP</text>
<polyline points="78.0,544.0 101.2,544.0 124.3,544.0 147.5,544.0 170.7,544.0 193.9,544.0 217.0,544.0 240.2,544.0 263.4,544.0 286.6,544.0 309.7,544.0 332.9,544.0 356.1,544.0 379.2,544.0 402.4,544.0 425.6,544.0 448.8,544.0 471.9,544.0 495.1,544.0 518.3,544.0 541.4,544.0 564.6,544.0 587.8,544.0 611.0,544.0 634.1,544.0 657.3,544.0 680.5,544.0 703.7,544.0 726.8,544.0 750.0,544.0" fill="none" stroke="#ff7f0e" stroke-width="2"/>
<circle cx="78.0" cy="544.0" r="3" fill="#ff7f0e"/>
<circle cx="193.9" cy="544.0" r="3" fill="#ff7f0e"/>
<circle cx="309.7" cy="544.0" r="3" fill="#ff7f0e"/>
<circle cx="425.6" cy="544.0" r="3" fill="#ff7f0e"/>
<circle cx="541.4" cy="544.0" r="3" fill="#ff7f0e"/>
<circle cx="657.3" cy="544.0" r="3" fill="#ff7f0e"/>
<rect x="780" y="164" width="14" height="4" fill="#ff7f0e"/>
<text x="802" y="169" font-family="Arial" font-size="12">MSD radix</text>
<polyline points="78.0,543.5 101.2,542.2 124.3,540.2 147.5,538.3 170.7,535.8 193.9,533.0 217.0,530.0 240.2,526.8 263.4,523.4 286.6,519.6 309.7,516.0 332.9,511.6 356.1,508.9 379.2,504.0 402.4,498.0 425.6,495.5 448.8,490.2 471.9,486.4 495.1,479.9 518.3,475.3 541.4,471.6 564.6,466.6 587.8,460.7 611.0,457.3 634.1,451.5 657.3,447.2 680.5,442.6 703.7,434.8 726.8,428.8 750.0,424.3" fill="none" stroke="#17becf" stroke-width="2"/>
<circle cx="78.0" cy="543.5" r="3" fill="#17becf"/>
<circle cx="193.9" cy="533.0" r="3" fill="#17becf"/>
<circle cx="309.7" cy="516.0" r="3" fill="#17becf"/>
<circle cx="425.6" cy="495.5" r="3" fill="#17becf"/>
<circle cx="541.4" cy="471.6" r="3" fill="#17becf"/>
<circle cx="657.3" cy="447.2" r="3" fill="#17becf"/>
<rect x="780" y="188" width="14" height="4" fill="#17becf"/>
<text x="802" y="193" font-family="Arial" font-size="12">MSD + string QS</text>
</svg>