<svg xmlns="http://www.w3.org/2000/svg" width="980" height="620" viewBox="0 0 980 620">
<rect width="100%" height="100%" fill="white"/>
<text x="490.0" y="30" text-anchor="middle" font-family="Arial" font-size="20" font-weight="700">Comparisons: Reverse sorted</text>
<line x1="78" y1="544.0" x2="750" y2="544.0" stroke="#ddd"/>
<text x="68" y="548.0" text-anchor="end" font-family="Arial" font-size="12">0</text>
<line x1="78" y1="446.0" x2="750" y2="446.0" stroke="#ddd"/>
<text x="68" y="450.0" text-anchor="end" font-family="Arial" font-size="12">10k</text>
<line x1="78" y1="348.0" x2="750" y2="348.0" stroke="#ddd"/>
<text x="68" y="352.0" text-anchor="end" font-family="Arial" font-size="12">20k</text>
<line x1="78" y1="250.0" x2="750" y2="250.0" stroke="#ddd"/>
<text x="68" y="254.0" text-anchor="end" font-family="Arial" font-size="12">30k</text>
<line x1="78" y1="152.0" x2="750" y2="152.0" stroke="#ddd"/>
<text x="68" y="156.0" text-anchor="end" font-family="Arial" font-size="12">40k</text>
<line x1="78" y1="54.0" x2="750" y2="54.0" stroke="#ddd"/>
<text x="68" y="58.0" text-anchor="end" font-family="Arial" font-size="12">50k</text>
<line x1="78.0" y1="54" x2="78.0" y2="544" stroke="#eee"/>
<text x="78.0" y="568" text-anchor="middle" font-family="Arial" font-size="12">100</text>
<line x1="286.6" y1="54" x2="286.6" y2="544" stroke="#eee"/>
<text x="286.6" y="568" text-anchor="middle" font-family="Arial" font-size="12">1000</text>
<line x1="518.3" y1="54" x2="518.3" y2="544" stroke="#eee"/>
<text x="518.3" y="568" text-anchor="middle" font-family="Arial" font-size="12">2000</text>
<line x1="750.0" y1="54" x2="750.0" y2="544" stroke="#eee"/>
<text x="750.0" y="568" text-anchor="middle" font-family="Arial" font-size="12">3000</text>
<line x1="78" y1="544" x2="750" y2="544" stroke="#333"/>
<line x1="78" y1="54" x2="78" y2="544" stroke="#333"/>
<text x="414.0" y="596" text-anchor="middle" font-family="Arial" font-size="14">n</text>
<text x="22" y="299.0" text-anchor="middle" font-family="Arial" font-size="14" transform="rotate(-90 22 299.0)">Character comparisons</text>
<polyline points="78.0,534.8 101.2,522.9 124.3,510.5 147.5,496.3 170.7,483.4 193.9,470.1 217.0,455.1 240.2,439.7 263.4,425.5 286.6,411.3 309.7,396.7 332.9,383.0 356.1,365.0 379.2,350.3 402.4,332.8 425.6,319.8 448.8,302.8 471.9,288.6 495.1,273.4 518.3,256.2 541.4,240.7 564.6,226.1 587.8,211.8 611.0,197.5 634.1,180.5 657.3,158.7 680.5,140.2 703.7,125.2 726.8,109.2 750.0,90.3" fill="none" stroke="#1f77b4" stroke-width="2"/>
<circle cx="78.0" cy="534.8" r="3" fill="#1f77b4"/>
<circle cx="193.9" cy="470.1" r="3" fill="#1f77b4"/>
<circle cx="309.7" cy="396.7" r="3" fill="#1f77b4"/>
<circle cx="425.6" cy="319.8" r="3" fill="#1f77b4"/>
<circle cx="541.4" cy="240.7" r="3" fill="#1f77b4"/>
<circle cx="657.3" cy="158.7" r="3" fill="#1f77b4"/>
<rect x="780" y="68" width="14" height="4" fill="#1f77b4"/>
<text x="802" y="73" font-family="Arial" font-size="12">Quicksort</text>
<polyline points="78.0,537.5 101.2,529.6 124.3,521.2 147.5,513.2 170.7,506.3 193.9,495.6 217.0,486.1 240.2,478.3 263.4,469.9 286.6,463.5 309.7,451.7 332.9,441.3 356.1,431.7 379.2,421.6 402.4,412.5 425.6,404.1 448.8,393.4 471.9,387.0 495.1,379.5 518.3,373.0 541.4,363.1 564.6,349.9 587.8,339.2 611.0,326.7 634.1,316.1 657.3,304.8 680.5,293.1 703.7,284.9 726.8,274.6 750.0,266.1" fill="none" stroke="#d62728" stroke-width="2"/>
<circle cx="78.0" cy="537.5" r="3" fill="#d62728"/>
<circle cx="193.9" cy="495.6" r="3" fill="#d62728"/>
<circle cx="309.7" cy="451.7" r="3" fill="#d62728"/>
<circle cx="425.6" cy="404.1" r="3" fill="#d62728"/>
<circle cx="541.4" cy="363.1" r="3" fill="#d62728"/>
<circle cx="657.3" cy="304.8" r="3" fill="#d62728"/>
<rect x="780" y="92" width="14" height="4" fill="#d62728"/>
<text x="802" y="97" font-family="Arial" font-size="12">Mergesort</text>
<polyline points="78.0,538.4 101.2,531.6 124.3,523.1 147.5,516.4 170.7,508.3 193.9,500.0 217.0,490.9 240.2,483.1 263.4,473.5 286.6,464.5 309.7,454.8 332.9,445.8 356.1,435.3 379.2,426.4 402.4,416.7 425.6,405.0 448.8,396.9 471.9,385.2 495.1,378.2 518.3,367.6 541.4,356.8 564.6,343.7 587.8,335.7 611.0,323.9 634.1,313.4 657.3,303.4 680.5,292.0 703.7,281.3 726.8,271.7 750.0,261.8" fill="none" stroke="#2ca02c" stroke-width="2"/>
<circle cx="78.0" cy="538.4" r="3" fill="#2ca02c"/>
<circle cx="193.9" cy="500.0" r="3" fill="#2ca02c"/>
<circle cx="309.7" cy="454.8" r="3" fill="#2ca02c"/>
<circle cx="425.6" cy="405.0" r="3" fill="#2ca02c"/>
<circle cx="541.4" cy="356.8" r="3" fill="#2ca02c"/>
<circle cx="657.3" cy="303.4" r="3" fill="#2ca02c"/>
<rect x="780" y="116" width="14" height="4" fill="#2ca02c"/>
<text x="802" y="121" font-family="Arial" font-size="12">String quicksort</text>
<polyline points="78.0,540.4 101.2,536.6 124.3,532.5 147.5,528.9 170.7,525.5 193.9,521.0 217.0,516.6 240.2,513.3 263.4,509.4 286.6,506.8 309.7,501.1 332.9,497.7 356.1,493.6 379.2,489.1 402.4,485.0 425.6,482.0 448.8,477.0 471.9,475.1 495.1,471.8 518.3,469.0 541.4,465.2 564.6,459.5 587.8,455.8 611.0,450.4 634.1,445.9 657.3,441.1 680.5,436.1 703.7,433.5 726.8,429.1 750.0,425.5" fill="none" stroke="#9467bd" stroke-width="2"/>
<circle cx="78.0" cy="540.4" r="3" fill="#9467bd"/>
<circle cx="193.9" cy="521.0" r="3" fill="#9467bd"/>
<circle cx="309.7" cy="501.1" r="3" fill="#9467bd"/>
<circle cx="425.6" cy="482.0" r="3" fill="#9467bd"/>
<circle cx="541.4" cy="465.2" r="3" fill="#9467bd"/>
<circle cx="657.3" cy="441.1" r="3" fill="#9467bd"/>
<rect x="780" y="140" width="14" height="4" fill="#9467bd"/>
<text x="802" y="145" font-family="Arial" font-size="12">String mergesort LCP</text>
<polyline points="78.0,544.0 101.2,544.0 124.3,544.0 147.5,544.0 170.7,544.0 193.9,544.0 217.0,544.0 240.2,544.0 263.4,544.0 286.6,544.0 309.7,544.0 332.9,544.0 356.1,544.0 379.2,544.0 402.4,544.0 425.6,544.0 448.8,544.0 471.9,544.0 495.1,544.0 518.3,544.0 541.4,544.0 564.6,544.0 587.8,544.0 611.0,544.0 634.1,544.0 657.3,544.0 680.5,544.0 703.7,544.0 726.8,544.0 750.0,544.0" fill="none" stroke="#ff7f0e" stroke-width="2"/>
<circle cx="78.0" cy="544.0" r="3" fill="#ff7f0e"/>
<circle cx="193.9" cy="544.0" r="3" fill="#ff7f0e"/>
<circle cx="309.7" cy="544.0" r="3" fill="#ff7f0e"/>
<circle cx="425.6" cy="544.0" r="3" fill="#ff7f0e"/>
<circle cx="541.4" cy="544.0" r="3" fill="#ff7f0e"/>
<circle cx="657.3" cy="544.0" r="3" fill="#ff7f0e"/>
<rect x="780" y="164" width="14" height="4" fill="#ff7f0e"/>
<text x="802" y="169" font-family="Arial" font-size="12">MSD radix</text>
<polyline points="78.0,540.5 101.2,536.7 124.3,533.1 147.5,529.5 170.7,525.6 193.9,522.2 217.0,518.4 240.2,514.8 263.4,511.2 286.6,507.5 309.7,503.8 332.9,500.3 356.1,496.6 379.2,493.1 402.4,489.5 425.6,485.7 448.8,482.2 471.9,478.8 495.1,475.3 518.3,472.0 541.4,468.2 564.6,464.7 587.8,461.0 611.0,457.1 634.1,453.1 657.3,449.8 680.5,445.9 703.7,442.5 726.8,438.8 750.0,434.9" fill="none" stroke="#17becf" stroke-width="2"/>
<circle cx="78.0" cy="540.5" r="3" fill="#17becf"/>
<circle cx="193.9" cy="522.2" r="3" fill="#17becf"/>
<circle cx="309.7" cy="503.8" r="3" fill="#17becf"/>
<circle cx="425.6" cy="485.7" r="3" fill="#17becf"/>
<circle cx="541.4" cy="468.2" r="3" fill="#17becf"/>
<circle cx="657.3" cy="449.8" r="3" fill="#17becf"/>
<rect x="780" y="188" width="14" height="4" fill="#17becf"/>
<text x="802" y="193" font-family="Arial" font-size="12">MSD + string QS</text>
</svg>