<svg xmlns="http://www.w3.org/2000/svg" width="980" height="620" viewBox="0 0 980 620">
<rect width="100%" height="100%" fill="white"/>
<text x="490.0" y="30" text-anchor="middle" font-family="Arial" font-size="20" font-weight="700">Inspections: Reverse sorted</text>
<line x1="78" y1="544.0" x2="750" y2="544.0" stroke="#ddd"/>
<text x="68" y="548.0" text-anchor="end" font-family="Arial" font-size="12">0</text>
<line x1="78" y1="446.0" x2="750" y2="446.0" stroke="#ddd"/>
<text x="68" y="450.0" text-anchor="end" font-family="Arial" font-size="12">20k</text>
<line x1="78" y1="348.0" x2="750" y2="348.0" stroke="#ddd"/>
<text x="68" y="352.0" text-anchor="end" font-family="Arial" font-size="12">40k</text>
<line x1="78" y1="250.0" x2="750" y2="250.0" stroke="#ddd"/>
<text x="68" y="254.0" text-anchor="end" font-family="Arial" font-size="12">60k</text>
<line x1="78" y1="152.0" x2="750" y2="152.0" stroke="#ddd"/>
<text x="68" y="156.0" text-anchor="end" font-family="Arial" font-size="12">80k</text>
<line x1="78" y1="54.0" x2="750" y2="54.0" stroke="#ddd"/>
<text x="68" y="58.0" text-anchor="end" font-family="Arial" font-size="12">100k</text>
<line x1="78.0" y1="54" x2="78.0" y2="544" stroke="#eee"/>
<text x="78.0" y="568" text-anchor="middle" font-family="Arial" font-size="12">100</text>
<line x1="286.6" y1="54" x2="286.6" y2="544" stroke="#eee"/>
<text x="286.6" y="568" text-anchor="middle" font-family="Arial" font-size="12">1000</text>
<line x1="518.3" y1="54" x2="518.3" y2="544" stroke="#eee"/>
<text x="518.3" y="568" text-anchor="middle" font-family="Arial" font-size="12">2000</text>
<line x1="750.0" y1="54" x2="750.0" y2="544" stroke="#eee"/>
<text x="750.0" y="568" text-anchor="middle" font-family="Arial" font-size="12">3000</text>
<line x1="78" y1="544" x2="750" y2="544" stroke="#333"/>
<line x1="78" y1="54" x2="78" y2="544" stroke="#333"/>
<text x="414.0" y="596" text-anchor="middle" font-family="Arial" font-size="14">n</text>
<text x="22" y="299.0" text-anchor="middle" font-family="Arial" font-size="14" transform="rotate(-90 22 299.0)">Character inspections</text>
<polyline points="78.0,534.8 101.2,522.9 124.3,510.5 147.5,496.3 170.7,483.4 193.9,470.1 217.0,455.1 240.2,439.7 263.4,425.5 286.6,411.3 309.7,396.7 332.9,383.0 356.1,365.0 379.2,350.3 402.4,332.8 425.6,319.8 448.8,302.8 471.9,288.6 495.1,273.4 518.3,256.2 541.4,240.7 564.6,226.1 587.8,211.8 611.0,197.5 634.1,180.5 657.3,158.7 680.5,140.2 703.7,125.2 726.8,109.2 750.0,90.3" fill="none" stroke="#1f77b4" stroke-width="2"/>
<circle cx="78.0" cy="534.8" r="3" fill="#1f77b4"/>
<circle cx="193.9" cy="470.1" r="3" fill="#1f77b4"/>
<circle cx="309.7" cy="396.7" r="3" fill="#1f77b4"/>
<circle cx="425.6" cy="319.8" r="3" fill="#1f77b4"/>
<circle cx="541.4" cy="240.7" r="3" fill="#1f77b4"/>
<circle cx="657.3" cy="158.7" r="3" fill="#1f77b4"/>
<rect x="780" y="68" width="14" height="4" fill="#1f77b4"/>
<text x="802" y="73" font-family="Arial" font-size="12">Quicksort</text>
<polyline points="78.0,537.5 101.2,529.6 124.3,521.2 147.5,513.2 170.7,506.3 193.9,495.6 217.0,486.1 240.2,478.3 263.4,469.9 286.6,463.5 309.7,451.7 332.9,441.3 356.1,431.7 379.2,421.6 402.4,412.5 425.6,404.1 448.8,393.4 471.9,387.0 495.1,379.5 518.3,373.0 541.4,363.1 564.6,349.9 587.8,339.2 611.0,326.7 634.1,316.1 657.3,304.8 680.5,293.1 703.7,284.9 726.8,274.6 750.0,266.1" fill="none" stroke="#d62728" stroke-width="2"/>
<circle cx="78.0" cy="537.5" r="3" fill="#d62728"/>
<circle cx="193.9" cy="495.6" r="3" fill="#d62728"/>
<circle cx="309.7" cy="451.7" r="3" fill="#d62728"/>
<circle cx="425.6" cy="404.1" r="3" fill="#d62728"/>
<circle cx="541.4" cy="363.1" r="3" fill="#d62728"/>
<circle cx="657.3" cy="304.8" r="3" fill="#d62728"/>
<rect x="780" y="92" width="14" height="4" fill="#d62728"/>
<text x="802" y="97" font-family="Arial" font-size="12">Mergesort</text>
<polyline points="78.0,540.8 101.2,537.0 124.3,532.4 147.5,528.7 170.7,524.2 193.9,519.7 217.0,514.8 240.2,510.6 263.4,505.3 286.6,500.4 309.7,495.2 332.9,490.3 356.1,484.7 379.2,479.8 402.4,474.6 425.6,468.4 448.8,463.9 471.9,457.7 495.1,453.9 518.3,448.2 541.4,442.4 564.6,435.5 587.8,431.1 611.0,424.7 634.1,419.2 657.3,413.9 680.5,407.6 703.7,402.0 726.8,396.9 750.0,391.5" fill="none" stroke="#2ca02c" stroke-width="2"/>
<circle cx="78.0" cy="540.8" r="3" fill="#2ca02c"/>
<circle cx="193.9" cy="519.7" r="3" fill="#2ca02c"/>
<circle cx="309.7" cy="495.2" r="3" fill="#2ca02c"/>
<circle cx="425.6" cy="468.4" r="3" fill="#2ca02c"/>
<circle cx="541.4" cy="442.4" r="3" fill="#2ca02c"/>
<circle cx="657.3" cy="413.9" r="3" fill="#2ca02c"/>
<rect x="780" y="116" width="14" height="4" fill="#2ca02c"/>
<text x="802" y="121" font-family="Arial" font-size="12">String quicksort</text>
<polyline points="78.0,540.4 101.2,536.6 124.3,532.5 147.5,528.9 170.7,525.5 193.9,521.0 217.0,516.6 240.2,513.3 263.4,509.4 286.6,506.8 309.7,501.1 332.9,497.7 356.1,493.6 379.2,489.1 402.4,485.0 425.6,482.0 448.8,477.0 471.9,475.1 495.1,471.8 518.3,469.0 541.4,465.2 564.6,459.5 587.8,455.8 611.0,450.4 634.1,445.9 657.3,441.1 680.5,436.1 703.7,433.5 726.8,429.1 750.0,425.5" fill="none" stroke="#9467bd" stroke-width="2"/>
<circle cx="78.0" cy="540.4" r="3" fill="#9467bd"/>
<circle cx="193.9" cy="521.0" r="3" fill="#9467bd"/>
<circle cx="309.7" cy="501.1" r="3" fill="#9467bd"/>
<circle cx="425.6" cy="482.0" r="3" fill="#9467bd"/>
<circle cx="541.4" cy="465.2" r="3" fill="#9467bd"/>
<circle cx="657.3" cy="441.1" r="3" fill="#9467bd"/>
<rect x="780" y="140" width="14" height="4" fill="#9467bd"/>
<text x="802" y="145" font-family="Arial" font-size="12">String mergesort LCP</text>
<polyline points="78.0,541.6 101.2,539.1 124.3,536.8 147.5,534.4 170.7,532.1 193.9,529.7 217.0,527.3 240.2,525.0 263.4,522.6 286.6,520.3 309.7,517.8 332.9,515.4 356.1,513.0 379.2,510.7 402.4,508.3 425.6,505.8 448.8,503.4 471.9,501.1 495.1,498.8 518.3,496.4 541.4,494.0 564.6,491.6 587.8,489.2 611.0,486.8 634.1,484.4 657.3,482.0 680.5,479.6 703.7,477.3 726.8,474.9 750.0,472.4" fill="none" stroke="#ff7f0e" stroke-width="2"/>
<circle cx="78.0" cy="541.6" r="3" fill="#ff7f0e"/>
<circle cx="193.9" cy="529.7" r="3" fill="#ff7f0e"/>
<circle cx="309.7" cy="517.8" r="3" fill="#ff7f0e"/>
<circle cx="425.6" cy="505.8" r="3" fill="#ff7f0e"/>
<circle cx="541.4" cy="494.0" r="3" fill="#ff7f0e"/>
<circle cx="657.3" cy="482.0" r="3" fill="#ff7f0e"/>
<rect x="780" y="164" width="14" height="4" fill="#ff7f0e"/>
<text x="802" y="169" font-family="Arial" font-size="12">MSD radix</text>
<polyline points="78.0,540.9 101.2,537.6 124.3,534.5 147.5,531.4 170.7,528.1 193.9,525.1 217.0,521.8 240.2,518.7 263.4,515.6 286.6,512.3 309.7,509.2 332.9,506.1 356.1,502.9 379.2,499.8 402.4,496.6 425.6,493.4 448.8,490.3 471.9,487.3 495.1,484.2 518.3,481.2 541.4,478.0 564.6,474.9 587.8,471.7 611.0,468.4 634.1,465.0 657.3,462.1 680.5,458.7 703.7,455.7 726.8,452.6 750.0,449.2" fill="none" stroke="#17becf" stroke-width="2"/>
<circle cx="78.0" cy="540.9" r="3" fill="#17becf"/>
<circle cx="193.9" cy="525.1" r="3" fill="#17becf"/>
<circle cx="309.7" cy="509.2" r="3" fill="#17becf"/>
<circle cx="425.6" cy="493.4" r="3" fill="#17becf"/>
<circle cx="541.4" cy="478.0" r="3" fill="#17becf"/>
<circle cx="657.3" cy="462.1" r="3" fill="#17becf"/>
<rect x="780" y="188" width="14" height="4" fill="#17becf"/>
<text x="802" y="193" font-family="Arial" font-size="12">MSD + string QS</text>
</svg>