<svg xmlns="http://www.w3.org/2000/svg" width="980" height="620" viewBox="0 0 980 620">
<rect width="100%" height="100%" fill="white"/>
<text x="490.0" y="30" text-anchor="middle" font-family="Arial" font-size="20" font-weight="700">Inspections: Random</text>
<line x1="78" y1="544.0" x2="750" y2="544.0" stroke="#ddd"/>
<text x="68" y="548.0" text-anchor="end" font-family="Arial" font-size="12">0</text>
<line x1="78" y1="446.0" x2="750" y2="446.0" stroke="#ddd"/>
<text x="68" y="450.0" text-anchor="end" font-family="Arial" font-size="12">23k</text>
<line x1="78" y1="348.0" x2="750" y2="348.0" stroke="#ddd"/>
<text x="68" y="352.0" text-anchor="end" font-family="Arial" font-size="12">47k</text>
<line x1="78" y1="250.0" x2="750" y2="250.0" stroke="#ddd"/>
<text x="68" y="254.0" text-anchor="end" font-family="Arial" font-size="12">70k</text>
<line x1="78" y1="152.0" x2="750" y2="152.0" stroke="#ddd"/>
<text x="68" y="156.0" text-anchor="end" font-family="Arial" font-size="12">93k</text>
<line x1="78" y1="54.0" x2="750" y2="54.0" stroke="#ddd"/>
<text x="68" y="58.0" text-anchor="end" font-family="Arial" font-size="12">117k</text>
<line x1="78.0" y1="54" x2="78.0" y2="544" stroke="#eee"/>
<text x="78.0" y="568" text-anchor="middle" font-family="Arial" font-size="12">100</text>
<line x1="286.6" y1="54" x2="286.6" y2="544" stroke="#eee"/>
<text x="286.6" y="568" text-anchor="middle" font-family="Arial" font-size="12">1000</text>
<line x1="518.3" y1="54" x2="518.3" y2="544" stroke="#eee"/>
<text x="518.3" y="568" text-anchor="middle" font-family="Arial" font-size="12">2000</text>
<line x1="750.0" y1="54" x2="750.0" y2="544" stroke="#eee"/>
<text x="750.0" y="568" text-anchor="middle" font-family="Arial" font-size="12">3000</text>
<line x1="78" y1="544" x2="750" y2="544" stroke="#333"/>
<line x1="78" y1="54" x2="78" y2="544" stroke="#333"/>
<text x="414.0" y="596" text-anchor="middle" font-family="Arial" font-size="14">n</text>
<text x="22" y="299.0" text-anchor="middle" font-family="Arial" font-size="14" transform="rotate(-90 22 299.0)">Character inspections</text>
<polyline points="78.0,537.5 101.2,529.1 124.3,517.9 147.5,509.7 170.7,496.7 193.9,486.0 217.0,470.5 240.2,448.8 263.4,438.3 286.6,425.3 309.7,404.8 332.9,392.9 356.1,383.1 379.2,365.1 402.4,348.6 425.6,315.9 448.8,313.9 471.9,303.9 495.1,271.3 518.3,250.3 541.4,262.5 564.6,234.2 587.8,205.5 611.0,202.4 634.1,180.4 657.3,168.5 680.5,132.6 703.7,122.4 726.8,110.5 750.0,90.3" fill="none" stroke="#1f77b4" stroke-width="2"/>
<circle cx="78.0" cy="537.5" r="3" fill="#1f77b4"/>
<circle cx="193.9" cy="486.0" r="3" fill="#1f77b4"/>
<circle cx="309.7" cy="404.8" r="3" fill="#1f77b4"/>
<circle cx="425.6" cy="315.9" r="3" fill="#1f77b4"/>
<circle cx="541.4" cy="262.5" r="3" fill="#1f77b4"/>
<circle cx="657.3" cy="168.5" r="3" fill="#1f77b4"/>
<rect x="780" y="68" width="14" height="4" fill="#1f77b4"/>
<text x="802" y="73" font-family="Arial" font-size="12">Quicksort</text>
<polyline points="78.0,539.1 101.2,531.6 124.3,522.8 147.5,513.2 170.7,503.2 193.9,492.5 217.0,481.3 240.2,470.1 263.4,458.4 286.6,447.0 309.7,434.7 332.9,422.2 356.1,409.2 379.2,396.1 402.4,383.4 425.6,370.6 448.8,356.8 471.9,342.9 495.1,329.4 518.3,316.3 541.4,302.3 564.6,287.8 587.8,273.1 611.0,259.2 634.1,244.0 657.3,229.8 680.5,214.1 703.7,199.9 726.8,185.1 750.0,169.9" fill="none" stroke="#d62728" stroke-width="2"/>
<circle cx="78.0" cy="539.1" r="3" fill="#d62728"/>
<circle cx="193.9" cy="492.5" r="3" fill="#d62728"/>
<circle cx="309.7" cy="434.7" r="3" fill="#d62728"/>
<circle cx="425.6" cy="370.6" r="3" fill="#d62728"/>
<circle cx="541.4" cy="302.3" r="3" fill="#d62728"/>
<circle cx="657.3" cy="229.8" r="3" fill="#d62728"/>
<rect x="780" y="92" width="14" height="4" fill="#d62728"/>
<text x="802" y="97" font-family="Arial" font-size="12">Mergesort</text>
<polyline points="78.0,540.8 101.2,537.4 124.3,533.4 147.5,529.8 170.7,526.5 193.9,519.6 217.0,515.6 240.2,509.0 263.4,504.2 286.6,501.8 309.7,492.7 332.9,490.0 356.1,480.7 379.2,480.5 402.4,475.3 425.6,468.6 448.8,465.7 471.9,456.1 495.1,450.3 518.3,441.7 541.4,439.3 564.6,432.1 587.8,421.8 611.0,431.4 634.1,417.1 657.3,421.8 680.5,400.3 703.7,404.3 726.8,403.5 750.0,389.3" fill="none" stroke="#2ca02c" stroke-width="2"/>
<circle cx="78.0" cy="540.8" r="3" fill="#2ca02c"/>
<circle cx="193.9" cy="519.6" r="3" fill="#2ca02c"/>
<circle cx="309.7" cy="492.7" r="3" fill="#2ca02c"/>
<circle cx="425.6" cy="468.6" r="3" fill="#2ca02c"/>
<circle cx="541.4" cy="439.3" r="3" fill="#2ca02c"/>
<circle cx="657.3" cy="421.8" r="3" fill="#2ca02c"/>
<rect x="780" y="116" width="14" height="4" fill="#2ca02c"/>
<text x="802" y="121" font-family="Arial" font-size="12">String quicksort</text>
<polyline points="78.0,539.8 101.2,534.1 124.3,527.9 147.5,521.2 170.7,514.5 193.9,507.5 217.0,500.3 240.2,492.8 263.4,485.3 286.6,478.4 309.7,470.9 332.9,463.0 356.1,454.7 379.2,446.6 402.4,438.9 425.6,431.1 448.8,422.6 471.9,413.9 495.1,405.8 518.3,398.2 541.4,389.5 564.6,380.9 587.8,371.9 611.0,363.9 634.1,354.5 657.3,346.1 680.5,336.8 703.7,328.6 726.8,320.0 750.0,310.6" fill="none" stroke="#9467bd" stroke-width="2"/>
<circle cx="78.0" cy="539.8" r="3" fill="#9467bd"/>
<circle cx="193.9" cy="507.5" r="3" fill="#9467bd"/>
<circle cx="309.7" cy="470.9" r="3" fill="#9467bd"/>
<circle cx="425.6" cy="431.1" r="3" fill="#9467bd"/>
<circle cx="541.4" cy="389.5" r="3" fill="#9467bd"/>
<circle cx="657.3" cy="346.1" r="3" fill="#9467bd"/>
<rect x="780" y="140" width="14" height="4" fill="#9467bd"/>
<text x="802" y="145" font-family="Arial" font-size="12">String mergesort LCP</text>
<polyline points="78.0,542.5 101.2,540.6 124.3,538.8 147.5,536.9 170.7,535.1 193.9,533.2 217.0,531.3 240.2,529.5 263.4,527.5 286.6,525.7 309.7,523.7 332.9,521.7 356.1,519.6 379.2,517.7 402.4,515.7 425.6,513.6 448.8,511.5 471.9,509.4 495.1,507.2 518.3,505.1 541.4,502.9 564.6,500.9 587.8,498.9 611.0,496.5 634.1,494.1 657.3,491.7 680.5,489.5 703.7,487.4 726.8,485.1 750.0,482.9" fill="none" stroke="#ff7f0e" stroke-width="2"/>
<circle cx="78.0" cy="542.5" r="3" fill="#ff7f0e"/>
<circle cx="193.9" cy="533.2" r="3" fill="#ff7f0e"/>
<circle cx="309.7" cy="523.7" r="3" fill="#ff7f0e"/>
<circle cx="425.6" cy="513.6" r="3" fill="#ff7f0e"/>
<circle cx="541.4" cy="502.9" r="3" fill="#ff7f0e"/>
<circle cx="657.3" cy="491.7" r="3" fill="#ff7f0e"/>
<rect x="780" y="164" width="14" height="4" fill="#ff7f0e"/>
<text x="802" y="169" font-family="Arial" font-size="12">MSD radix</text>
<polyline points="78.0,542.7 101.2,540.9 124.3,538.8 147.5,536.8 170.7,534.3 193.9,531.8 217.0,529.1 240.2,526.5 263.4,523.6 286.6,520.5 309.7,517.5 332.9,514.2 356.1,511.7 379.2,508.1 402.4,503.9 425.6,501.4 448.8,497.7 471.9,494.6 495.1,490.2 518.3,486.6 541.4,483.7 564.6,480.0 587.8,475.9 611.0,473.0 634.1,468.9 657.3,465.5 680.5,461.9 703.7,457.0 726.8,452.8 750.0,449.3" fill="none" stroke="#17becf" stroke-width="2"/>
<circle cx="78.0" cy="542.7" r="3" fill="#17becf"/>
<circle cx="193.9" cy="531.8" r="3" fill="#17becf"/>
<circle cx="309.7" cy="517.5" r="3" fill="#17becf"/>
<circle cx="425.6" cy="501.4" r="3" fill="#17becf"/>
<circle cx="541.4" cy="483.7" r="3" fill="#17becf"/>
<circle cx="657.3" cy="465.5" r="3" fill="#17becf"/>
<rect x="780" y="188" width="14" height="4" fill="#17becf"/>
<text x="802" y="193" font-family="Arial" font-size="12">MSD + string QS</text>
</svg>