<svg xmlns="http://www.w3.org/2000/svg" width="980" height="620" viewBox="0 0 980 620">
<rect width="100%" height="100%" fill="white"/>
<text x="490.0" y="30" text-anchor="middle" font-family="Arial" font-size="20" font-weight="700">Time: Random</text>
<line x1="78" y1="544.0" x2="750" y2="544.0" stroke="#ddd"/>
<text x="68" y="548.0" text-anchor="end" font-family="Arial" font-size="12">0</text>
<line x1="78" y1="446.0" x2="750" y2="446.0" stroke="#ddd"/>
<text x="68" y="450.0" text-anchor="end" font-family="Arial" font-size="12">168</text>
<line x1="78" y1="348.0" x2="750" y2="348.0" stroke="#ddd"/>
<text x="68" y="352.0" text-anchor="end" font-family="Arial" font-size="12">336</text>
<line x1="78" y1="250.0" x2="750" y2="250.0" stroke="#ddd"/>
<text x="68" y="254.0" text-anchor="end" font-family="Arial" font-size="12">505</text>
<line x1="78" y1="152.0" x2="750" y2="152.0" stroke="#ddd"/>
<text x="68" y="156.0" text-anchor="end" font-family="Arial" font-size="12">673</text>
<line x1="78" y1="54.0" x2="750" y2="54.0" stroke="#ddd"/>
<text x="68" y="58.0" text-anchor="end" font-family="Arial" font-size="12">841</text>
<line x1="78.0" y1="54" x2="78.0" y2="544" stroke="#eee"/>
<text x="78.0" y="568" text-anchor="middle" font-family="Arial" font-size="12">100</text>
<line x1="286.6" y1="54" x2="286.6" y2="544" stroke="#eee"/>
<text x="286.6" y="568" text-anchor="middle" font-family="Arial" font-size="12">1000</text>
<line x1="518.3" y1="54" x2="518.3" y2="544" stroke="#eee"/>
<text x="518.3" y="568" text-anchor="middle" font-family="Arial" font-size="12">2000</text>
<line x1="750.0" y1="54" x2="750.0" y2="544" stroke="#eee"/>
<text x="750.0" y="568" text-anchor="middle" font-family="Arial" font-size="12">3000</text>
<line x1="78" y1="544" x2="750" y2="544" stroke="#333"/>
<line x1="78" y1="54" x2="78" y2="544" stroke="#333"/>
<text x="414.0" y="596" text-anchor="middle" font-family="Arial" font-size="14">n</text>
<text x="22" y="299.0" text-anchor="middle" font-family="Arial" font-size="14" transform="rotate(-90 22 299.0)">Average time, us</text>
<polyline points="78.0,536.4 101.2,523.4 124.3,515.6 147.5,505.9 170.7,493.0 193.9,481.2 217.0,463.2 240.2,439.5 263.4,436.9 286.6,419.3 309.7,402.0 332.9,388.5 356.1,373.3 379.2,361.7 402.4,341.3 425.6,319.1 448.8,308.6 471.9,298.6 495.1,275.1 518.3,256.3 541.4,244.1 564.6,232.8 587.8,209.6 611.0,181.9 634.1,173.1 657.3,164.2 680.5,136.5 703.7,118.3 726.8,111.9 750.0,97.5" fill="none" stroke="#1f77b4" stroke-width="2"/>
<circle cx="78.0" cy="536.4" r="3" fill="#1f77b4"/>
<circle cx="193.9" cy="481.2" r="3" fill="#1f77b4"/>
<circle cx="309.7" cy="402.0" r="3" fill="#1f77b4"/>
<circle cx="425.6" cy="319.1" r="3" fill="#1f77b4"/>
<circle cx="541.4" cy="244.1" r="3" fill="#1f77b4"/>
<circle cx="657.3" cy="164.2" r="3" fill="#1f77b4"/>
<rect x="780" y="68" width="14" height="4" fill="#1f77b4"/>
<text x="802" y="73" font-family="Arial" font-size="12">Quicksort</text>
<polyline points="78.0,536.6 101.2,514.3 124.3,521.5 147.5,511.4 170.7,499.8 193.9,486.5 217.0,473.1 240.2,458.7 263.4,442.1 286.6,428.7 309.7,416.8 332.9,408.0 356.1,393.6 379.2,377.0 402.4,365.6 425.6,350.7 448.8,334.6 471.9,321.2 495.1,308.1 518.3,296.4 541.4,279.3 564.6,260.5 587.8,248.3 611.0,233.2 634.1,216.5 657.3,206.5 680.5,183.1 703.7,173.9 726.8,134.0 750.0,119.8" fill="none" stroke="#d62728" stroke-width="2"/>
<circle cx="78.0" cy="536.6" r="3" fill="#d62728"/>
<circle cx="193.9" cy="486.5" r="3" fill="#d62728"/>
<circle cx="309.7" cy="416.8" r="3" fill="#d62728"/>
<circle cx="425.6" cy="350.7" r="3" fill="#d62728"/>
<circle cx="541.4" cy="279.3" r="3" fill="#d62728"/>
<circle cx="657.3" cy="206.5" r="3" fill="#d62728"/>
<rect x="780" y="92" width="14" height="4" fill="#d62728"/>
<text x="802" y="97" font-family="Arial" font-size="12">Mergesort</text>
<polyline points="78.0,538.6 101.2,525.7 124.3,529.2 147.5,524.3 170.7,517.7 193.9,507.6 217.0,498.3 240.2,488.8 263.4,476.5 286.6,473.6 309.7,458.4 332.9,451.3 356.1,441.6 379.2,433.1 402.4,426.0 425.6,411.2 448.8,407.0 471.9,390.7 495.1,383.5 518.3,371.7 541.4,359.8 564.6,348.5 587.8,341.4 611.0,334.1 634.1,316.8 657.3,311.6 680.5,288.4 703.7,293.8 726.8,281.5 750.0,266.8" fill="none" stroke="#2ca02c" stroke-width="2"/>
<circle cx="78.0" cy="538.6" r="3" fill="#2ca02c"/>
<circle cx="193.9" cy="507.6" r="3" fill="#2ca02c"/>
<circle cx="309.7" cy="458.4" r="3" fill="#2ca02c"/>
<circle cx="425.6" cy="411.2" r="3" fill="#2ca02c"/>
<circle cx="541.4" cy="359.8" r="3" fill="#2ca02c"/>
<circle cx="657.3" cy="311.6" r="3" fill="#2ca02c"/>
<rect x="780" y="116" width="14" height="4" fill="#2ca02c"/>
<text x="802" y="121" font-family="Arial" font-size="12">String quicksort</text>
<polyline points="78.0,535.8 101.2,532.5 124.3,523.8 147.5,513.3 170.7,501.3 193.9,486.2 217.0,472.4 240.2,455.0 263.4,447.2 286.6,431.5 309.7,405.9 332.9,401.1 356.1,381.8 379.2,369.6 402.4,357.2 425.6,333.0 448.8,318.2 471.9,306.5 495.1,286.9 518.3,269.9 541.4,256.0 564.6,238.5 587.8,227.1 611.0,204.2 634.1,193.8 657.3,177.6 680.5,155.8 703.7,141.6 726.8,102.0 750.0,90.3" fill="none" stroke="#9467bd" stroke-width="2"/>
<circle cx="78.0" cy="535.8" r="3" fill="#9467bd"/>
<circle cx="193.9" cy="486.2" r="3" fill="#9467bd"/>
<circle cx="309.7" cy="405.9" r="3" fill="#9467bd"/>
<circle cx="425.6" cy="333.0" r="3" fill="#9467bd"/>
<circle cx="541.4" cy="256.0" r="3" fill="#9467bd"/>
<circle cx="657.3" cy="177.6" r="3" fill="#9467bd"/>
<rect x="780" y="140" width="14" height="4" fill="#9467bd"/>
<text x="802" y="145" font-family="Arial" font-size="12">String mergesort LCP</text>
<polyline points="78.0,536.1 101.2,534.4 124.3,531.7 147.5,528.2 170.7,524.1 193.9,521.6 217.0,518.9 240.2,514.9 263.4,510.1 286.6,506.8 309.7,505.3 332.9,495.6 356.1,496.3 379.2,492.7 402.4,491.3 425.6,486.3 448.8,482.3 471.9,475.9 495.1,470.7 518.3,464.9 541.4,463.5 564.6,459.9 587.8,457.5 611.0,449.1 634.1,444.7 657.3,436.5 680.5,432.9 703.7,426.8 726.8,406.2 750.0,402.9" fill="none" stroke="#ff7f0e" stroke-width="2"/>
<circle cx="78.0" cy="536.1" r="3" fill="#ff7f0e"/>
<circle cx="193.9" cy="521.6" r="3" fill="#ff7f0e"/>
<circle cx="309.7" cy="505.3" r="3" fill="#ff7f0e"/>
<circle cx="425.6" cy="486.3" r="3" fill="#ff7f0e"/>
<circle cx="541.4" cy="463.5" r="3" fill="#ff7f0e"/>
<circle cx="657.3" cy="436.5" r="3" fill="#ff7f0e"/>
<rect x="780" y="164" width="14" height="4" fill="#ff7f0e"/>
<text x="802" y="169" font-family="Arial" font-size="12">MSD radix</text>
<polyline points="78.0,541.2 101.2,539.9 124.3,537.6 147.5,534.2 170.7,527.8 193.9,524.6 217.0,519.4 240.2,517.4 263.4,513.2 286.6,506.8 309.7,502.1 332.9,497.3 356.1,489.9 379.2,485.7 402.4,479.1 425.6,469.6 448.8,468.6 471.9,460.9 495.1,454.9 518.3,447.3 541.4,441.0 564.6,435.4 587.8,429.7 611.0,421.2 634.1,414.8 657.3,408.7 680.5,402.8 703.7,395.4 726.8,373.4 750.0,366.2" fill="none" stroke="#17becf" stroke-width="2"/>
<circle cx="78.0" cy="541.2" r="3" fill="#17becf"/>
<circle cx="193.9" cy="524.6" r="3" fill="#17becf"/>
<circle cx="309.7" cy="502.1" r="3" fill="#17becf"/>
<circle cx="425.6" cy="469.6" r="3" fill="#17becf"/>
<circle cx="541.4" cy="441.0" r="3" fill="#17becf"/>
<circle cx="657.3" cy="408.7" r="3" fill="#17becf"/>
<rect x="780" y="188" width="14" height="4" fill="#17becf"/>
<text x="802" y="193" font-family="Arial" font-size="12">MSD + string QS</text>
</svg>