<svg xmlns="http://www.w3.org/2000/svg" width="980" height="620" viewBox="0 0 980 620">
<rect width="100%" height="100%" fill="white"/>
<text x="490.0" y="30" text-anchor="middle" font-family="Arial" font-size="20" font-weight="700">Time: Reverse sorted</text>
<line x1="78" y1="544.0" x2="750" y2="544.0" stroke="#ddd"/>
<text x="68" y="548.0" text-anchor="end" font-family="Arial" font-size="12">0</text>
<line x1="78" y1="446.0" x2="750" y2="446.0" stroke="#ddd"/>
<text x="68" y="450.0" text-anchor="end" font-family="Arial" font-size="12">90</text>
<line x1="78" y1="348.0" x2="750" y2="348.0" stroke="#ddd"/>
<text x="68" y="352.0" text-anchor="end" font-family="Arial" font-size="12">181</text>
<line x1="78" y1="250.0" x2="750" y2="250.0" stroke="#ddd"/>
<text x="68" y="254.0" text-anchor="end" font-family="Arial" font-size="12">271</text>
<line x1="78" y1="152.0" x2="750" y2="152.0" stroke="#ddd"/>
<text x="68" y="156.0" text-anchor="end" font-family="Arial" font-size="12">361</text>
<line x1="78" y1="54.0" x2="750" y2="54.0" stroke="#ddd"/>
<text x="68" y="58.0" text-anchor="end" font-family="Arial" font-size="12">452</text>
<line x1="78.0" y1="54" x2="78.0" y2="544" stroke="#eee"/>
<text x="78.0" y="568" text-anchor="middle" font-family="Arial" font-size="12">100</text>
<line x1="286.6" y1="54" x2="286.6" y2="544" stroke="#eee"/>
<text x="286.6" y="568" text-anchor="middle" font-family="Arial" font-size="12">1000</text>
<line x1="518.3" y1="54" x2="518.3" y2="544" stroke="#eee"/>
<text x="518.3" y="568" text-anchor="middle" font-family="Arial" font-size="12">2000</text>
<line x1="750.0" y1="54" x2="750.0" y2="544" stroke="#eee"/>
<text x="750.0" y="568" text-anchor="middle" font-family="Arial" font-size="12">3000</text>
<line x1="78" y1="544" x2="750" y2="544" stroke="#333"/>
<line x1="78" y1="54" x2="78" y2="544" stroke="#333"/>
<text x="414.0" y="596" text-anchor="middle" font-family="Arial" font-size="14">n</text>
<text x="22" y="299.0" text-anchor="middle" font-family="Arial" font-size="14" transform="rotate(-90 22 299.0)">Average time, us</text>
<polyline points="78.0,533.5 101.2,521.1 124.3,508.9 147.5,495.8 170.7,481.4 193.9,467.6 217.0,450.5 240.2,436.8 263.4,423.7 286.6,412.2 309.7,394.7 332.9,381.8 356.1,363.2 379.2,348.1 402.4,334.2 425.6,319.1 448.8,300.9 471.9,289.1 495.1,271.1 518.3,255.8 541.4,241.4 564.6,231.4 587.8,202.1 611.0,195.9 634.1,180.4 657.3,163.5 680.5,139.7 703.7,122.8 726.8,106.2 750.0,90.3" fill="none" stroke="#1f77b4" stroke-width="2"/>
<circle cx="78.0" cy="533.5" r="3" fill="#1f77b4"/>
<circle cx="193.9" cy="467.6" r="3" fill="#1f77b4"/>
<circle cx="309.7" cy="394.7" r="3" fill="#1f77b4"/>
<circle cx="425.6" cy="319.1" r="3" fill="#1f77b4"/>
<circle cx="541.4" cy="241.4" r="3" fill="#1f77b4"/>
<circle cx="657.3" cy="163.5" r="3" fill="#1f77b4"/>
<rect x="780" y="68" width="14" height="4" fill="#1f77b4"/>
<text x="802" y="73" font-family="Arial" font-size="12">Quicksort</text>
<polyline points="78.0,536.6 101.2,528.0 124.3,517.8 147.5,508.2 170.7,492.9 193.9,488.7 217.0,475.1 240.2,463.9 263.4,456.1 286.6,445.9 309.7,430.1 332.9,423.1 356.1,412.0 379.2,396.7 402.4,384.5 425.6,375.7 448.8,360.2 471.9,354.1 495.1,341.1 518.3,337.2 541.4,323.1 564.6,305.6 587.8,295.7 611.0,280.4 634.1,265.5 657.3,225.1 680.5,211.0 703.7,188.5 726.8,185.0 750.0,172.9" fill="none" stroke="#d62728" stroke-width="2"/>
<circle cx="78.0" cy="536.6" r="3" fill="#d62728"/>
<circle cx="193.9" cy="488.7" r="3" fill="#d62728"/>
<circle cx="309.7" cy="430.1" r="3" fill="#d62728"/>
<circle cx="425.6" cy="375.7" r="3" fill="#d62728"/>
<circle cx="541.4" cy="323.1" r="3" fill="#d62728"/>
<circle cx="657.3" cy="225.1" r="3" fill="#d62728"/>
<rect x="780" y="92" width="14" height="4" fill="#d62728"/>
<text x="802" y="97" font-family="Arial" font-size="12">Mergesort</text>
<polyline points="78.0,538.8 101.2,531.7 124.3,525.1 147.5,518.4 170.7,510.1 193.9,502.0 217.0,493.5 240.2,486.7 263.4,476.0 286.6,468.6 309.7,456.9 332.9,449.1 356.1,438.6 379.2,429.0 402.4,421.7 425.6,409.8 448.8,403.0 471.9,388.5 495.1,379.4 518.3,375.9 541.4,362.8 564.6,350.6 587.8,340.5 611.0,322.3 634.1,313.9 657.3,299.4 680.5,281.3 703.7,279.9 726.8,273.8 750.0,259.9" fill="none" stroke="#2ca02c" stroke-width="2"/>
<circle cx="78.0" cy="538.8" r="3" fill="#2ca02c"/>
<circle cx="193.9" cy="502.0" r="3" fill="#2ca02c"/>
<circle cx="309.7" cy="456.9" r="3" fill="#2ca02c"/>
<circle cx="425.6" cy="409.8" r="3" fill="#2ca02c"/>
<circle cx="541.4" cy="362.8" r="3" fill="#2ca02c"/>
<circle cx="657.3" cy="299.4" r="3" fill="#2ca02c"/>
<rect x="780" y="116" width="14" height="4" fill="#2ca02c"/>
<text x="802" y="121" font-family="Arial" font-size="12">String quicksort</text>
<polyline points="78.0,536.5 101.2,527.5 124.3,512.5 147.5,507.7 170.7,491.9 193.9,486.6 217.0,470.1 240.2,457.6 263.4,442.7 286.6,434.6 309.7,415.9 332.9,412.3 356.1,400.1 379.2,381.1 402.4,369.9 425.6,353.6 448.8,342.0 471.9,331.0 495.1,318.1 518.3,313.1 541.4,292.9 564.6,275.4 587.8,260.6 611.0,245.6 634.1,237.6 657.3,195.8 680.5,171.9 703.7,162.4 726.8,144.1 750.0,131.2" fill="none" stroke="#9467bd" stroke-width="2"/>
<circle cx="78.0" cy="536.5" r="3" fill="#9467bd"/>
<circle cx="193.9" cy="486.6" r="3" fill="#9467bd"/>
<circle cx="309.7" cy="415.9" r="3" fill="#9467bd"/>
<circle cx="425.6" cy="353.6" r="3" fill="#9467bd"/>
<circle cx="541.4" cy="292.9" r="3" fill="#9467bd"/>
<circle cx="657.3" cy="195.8" r="3" fill="#9467bd"/>
<rect x="780" y="140" width="14" height="4" fill="#9467bd"/>
<text x="802" y="145" font-family="Arial" font-size="12">String mergesort LCP</text>
<polyline points="78.0,535.5 101.2,525.0 124.3,520.8 147.5,513.2 170.7,504.2 193.9,499.0 217.0,490.2 240.2,483.3 263.4,470.3 286.6,468.6 309.7,456.0 332.9,450.0 356.1,445.7 379.2,436.1 402.4,425.0 425.6,421.0 448.8,413.8 471.9,403.2 495.1,400.6 518.3,391.7 541.4,380.3 564.6,374.2 587.8,365.1 611.0,359.3 634.1,346.3 657.3,325.5 680.5,314.0 703.7,289.2 726.8,288.1 750.0,286.4" fill="none" stroke="#ff7f0e" stroke-width="2"/>
<circle cx="78.0" cy="535.5" r="3" fill="#ff7f0e"/>
<circle cx="193.9" cy="499.0" r="3" fill="#ff7f0e"/>
<circle cx="309.7" cy="456.0" r="3" fill="#ff7f0e"/>
<circle cx="425.6" cy="421.0" r="3" fill="#ff7f0e"/>
<circle cx="541.4" cy="380.3" r="3" fill="#ff7f0e"/>
<circle cx="657.3" cy="325.5" r="3" fill="#ff7f0e"/>
<rect x="780" y="164" width="14" height="4" fill="#ff7f0e"/>
<text x="802" y="169" font-family="Arial" font-size="12">MSD radix</text>
<polyline points="78.0,538.1 101.2,532.3 124.3,526.7 147.5,521.1 170.7,512.5 193.9,508.3 217.0,500.8 240.2,493.1 263.4,484.9 286.6,481.7 309.7,470.6 332.9,467.4 356.1,462.4 379.2,454.7 402.4,448.1 425.6,442.7 448.8,435.5 471.9,423.7 495.1,416.0 518.3,408.7 541.4,408.8 564.6,397.9 587.8,392.9 611.0,386.4 634.1,378.4 657.3,346.1 680.5,345.2 703.7,333.8 726.8,324.0 750.0,312.5" fill="none" stroke="#17becf" stroke-width="2"/>
<circle cx="78.0" cy="538.1" r="3" fill="#17becf"/>
<circle cx="193.9" cy="508.3" r="3" fill="#17becf"/>
<circle cx="309.7" cy="470.6" r="3" fill="#17becf"/>
<circle cx="425.6" cy="442.7" r="3" fill="#17becf"/>
<circle cx="541.4" cy="408.8" r="3" fill="#17becf"/>
<circle cx="657.3" cy="346.1" r="3" fill="#17becf"/>
<rect x="780" y="188" width="14" height="4" fill="#17becf"/>
<text x="802" y="193" font-family="Arial" font-size="12">MSD + string QS</text>
</svg>