<svg xmlns="http://www.w3.org/2000/svg" width="980" height="620" viewBox="0 0 980 620">
<rect width="100%" height="100%" fill="white"/>
<text x="490.0" y="30" text-anchor="middle" font-family="Arial" font-size="20" font-weight="700">Time at n = 3000: Random</text>
<line x1="82" y1="470.0" x2="944" y2="470.0" stroke="#ddd"/>
<text x="72" y="474.0" text-anchor="end" font-family="Arial" font-size="12">0</text>
<line x1="82" y1="386.8" x2="944" y2="386.8" stroke="#ddd"/>
<text x="72" y="390.8" text-anchor="end" font-family="Arial" font-size="12">174</text>
<line x1="82" y1="303.6" x2="944" y2="303.6" stroke="#ddd"/>
<text x="72" y="307.6" text-anchor="end" font-family="Arial" font-size="12">349</text>
<line x1="82" y1="220.4" x2="944" y2="220.4" stroke="#ddd"/>
<text x="72" y="224.4" text-anchor="end" font-family="Arial" font-size="12">523</text>
<line x1="82" y1="137.2" x2="944" y2="137.2" stroke="#ddd"/>
<text x="72" y="141.2" text-anchor="end" font-family="Arial" font-size="12">698</text>
<line x1="82" y1="54.0" x2="944" y2="54.0" stroke="#ddd"/>
<text x="72" y="58.0" text-anchor="end" font-family="Arial" font-size="12">872</text>
<rect x="105.0" y="354.5" width="97.7" height="115.5" fill="#ff7f0e"/>
<text x="153.8" y="348.5" text-anchor="middle" font-family="Arial" font-size="12">242</text>
<text x="153.8" y="488" text-anchor="end" font-family="Arial" font-size="12" transform="rotate(-35 153.8 488)">MSD radix</text>
<rect x="248.7" y="324.4" width="97.7" height="145.6" fill="#17becf"/>
<text x="297.5" y="318.4" text-anchor="middle" font-family="Arial" font-size="12">305</text>
<text x="297.5" y="488" text-anchor="end" font-family="Arial" font-size="12" transform="rotate(-35 297.5 488)">MSD + string QS</text>
<rect x="392.3" y="243.1" width="97.7" height="226.9" fill="#2ca02c"/>
<text x="441.2" y="237.1" text-anchor="middle" font-family="Arial" font-size="12">476</text>
<text x="441.2" y="488" text-anchor="end" font-family="Arial" font-size="12" transform="rotate(-35 441.2 488)">String quicksort</text>
<rect x="536.0" y="122.7" width="97.7" height="347.3" fill="#d62728"/>
<text x="584.8" y="116.7" text-anchor="middle" font-family="Arial" font-size="12">728</text>
<text x="584.8" y="488" text-anchor="end" font-family="Arial" font-size="12" transform="rotate(-35 584.8 488)">Mergesort</text>
<rect x="679.7" y="104.5" width="97.7" height="365.5" fill="#1f77b4"/>
<text x="728.5" y="98.5" text-anchor="middle" font-family="Arial" font-size="12">766</text>
<text x="728.5" y="488" text-anchor="end" font-family="Arial" font-size="12" transform="rotate(-35 728.5 488)">Quicksort</text>
<rect x="823.3" y="98.6" width="97.7" height="371.4" fill="#9467bd"/>
<text x="872.2" y="92.6" text-anchor="middle" font-family="Arial" font-size="12">779</text>
<text x="872.2" y="488" text-anchor="end" font-family="Arial" font-size="12" transform="rotate(-35 872.2 488)">String mergesort LCP</text>
<line x1="82" y1="470" x2="944" y2="470" stroke="#333"/>
<line x1="82" y1="54" x2="82" y2="470" stroke="#333"/>
<text x="22" y="262.0" text-anchor="middle" font-family="Arial" font-size="14" transform="rotate(-90 22 262.0)">Average time, us</text>
</svg>