<svg xmlns="http://www.w3.org/2000/svg" width="980" height="620" viewBox="0 0 980 620">
<rect width="100%" height="100%" fill="white"/>
<text x="490.0" y="30" text-anchor="middle" font-family="Arial" font-size="20" font-weight="700">Time: Nearly sorted</text>
<line x1="78" y1="544.0" x2="750" y2="544.0" stroke="#ddd"/>
<text x="68" y="548.0" text-anchor="end" font-family="Arial" font-size="12">0</text>
<line x1="78" y1="446.0" x2="750" y2="446.0" stroke="#ddd"/>
<text x="68" y="450.0" text-anchor="end" font-family="Arial" font-size="12">105</text>
<line x1="78" y1="348.0" x2="750" y2="348.0" stroke="#ddd"/>
<text x="68" y="352.0" text-anchor="end" font-family="Arial" font-size="12">210</text>
<line x1="78" y1="250.0" x2="750" y2="250.0" stroke="#ddd"/>
<text x="68" y="254.0" text-anchor="end" font-family="Arial" font-size="12">316</text>
<line x1="78" y1="152.0" x2="750" y2="152.0" stroke="#ddd"/>
<text x="68" y="156.0" text-anchor="end" font-family="Arial" font-size="12">421</text>
<line x1="78" y1="54.0" x2="750" y2="54.0" stroke="#ddd"/>
<text x="68" y="58.0" text-anchor="end" font-family="Arial" font-size="12">526</text>
<line x1="78.0" y1="54" x2="78.0" y2="544" stroke="#eee"/>
<text x="78.0" y="568" text-anchor="middle" font-family="Arial" font-size="12">100</text>
<line x1="286.6" y1="54" x2="286.6" y2="544" stroke="#eee"/>
<text x="286.6" y="568" text-anchor="middle" font-family="Arial" font-size="12">1000</text>
<line x1="518.3" y1="54" x2="518.3" y2="544" stroke="#eee"/>
<text x="518.3" y="568" text-anchor="middle" font-family="Arial" font-size="12">2000</text>
<line x1="750.0" y1="54" x2="750.0" y2="544" stroke="#eee"/>
<text x="750.0" y="568" text-anchor="middle" font-family="Arial" font-size="12">3000</text>
<line x1="78" y1="544" x2="750" y2="544" stroke="#333"/>
<line x1="78" y1="54" x2="78" y2="544" stroke="#333"/>
<text x="414.0" y="596" text-anchor="middle" font-family="Arial" font-size="14">n</text>
<text x="22" y="299.0" text-anchor="middle" font-family="Arial" font-size="14" transform="rotate(-90 22 299.0)">Average time, us</text>
<polyline points="78.0,533.5 101.2,524.3 124.3,512.2 147.5,500.9 170.7,489.6 193.9,473.8 217.0,462.2 240.2,449.1 263.4,438.1 286.6,425.1 309.7,412.1 332.9,401.4 356.1,385.4 379.2,363.4 402.4,357.6 425.6,343.5 448.8,329.0 471.9,313.0 495.1,304.1 518.3,287.5 541.4,274.5 564.6,256.6 587.8,244.3 611.0,226.5 634.1,215.6 657.3,120.0 680.5,164.5 703.7,114.7 726.8,116.1 750.0,110.2" fill="none" stroke="#1f77b4" stroke-width="2"/>
<circle cx="78.0" cy="533.5" r="3" fill="#1f77b4"/>
<circle cx="193.9" cy="473.8" r="3" fill="#1f77b4"/>
<circle cx="309.7" cy="412.1" r="3" fill="#1f77b4"/>
<circle cx="425.6" cy="343.5" r="3" fill="#1f77b4"/>
<circle cx="541.4" cy="274.5" r="3" fill="#1f77b4"/>
<circle cx="657.3" cy="120.0" r="3" fill="#1f77b4"/>
<rect x="780" y="68" width="14" height="4" fill="#1f77b4"/>
<text x="802" y="73" font-family="Arial" font-size="12">Quicksort</text>
<polyline points="78.0,537.1 101.2,531.2 124.3,523.0 147.5,513.1 170.7,506.0 193.9,495.5 217.0,485.4 240.2,474.5 263.4,468.7 286.6,458.3 309.7,450.3 332.9,440.2 356.1,430.5 379.2,421.5 402.4,406.3 425.6,397.6 448.8,389.7 471.9,369.9 495.1,370.8 518.3,360.5 541.4,351.4 564.6,341.5 587.8,333.7 611.0,320.0 634.1,311.4 657.3,142.3 680.5,242.9 703.7,245.5 726.8,242.8 750.0,245.2" fill="none" stroke="#d62728" stroke-width="2"/>
<circle cx="78.0" cy="537.1" r="3" fill="#d62728"/>
<circle cx="193.9" cy="495.5" r="3" fill="#d62728"/>
<circle cx="309.7" cy="450.3" r="3" fill="#d62728"/>
<circle cx="425.6" cy="397.6" r="3" fill="#d62728"/>
<circle cx="541.4" cy="351.4" r="3" fill="#d62728"/>
<circle cx="657.3" cy="142.3" r="3" fill="#d62728"/>
<rect x="780" y="92" width="14" height="4" fill="#d62728"/>
<text x="802" y="97" font-family="Arial" font-size="12">Mergesort</text>
<polyline points="78.0,539.4 101.2,534.4 124.3,528.1 147.5,522.6 170.7,515.6 193.9,505.5 217.0,499.0 240.2,491.2 263.4,484.7 286.6,473.5 309.7,470.0 332.9,462.0 356.1,451.6 379.2,443.6 402.4,434.8 425.6,428.9 448.8,413.9 471.9,405.8 495.1,396.8 518.3,392.7 541.4,383.1 564.6,373.0 587.8,366.0 611.0,354.9 634.1,346.3 657.3,236.4 680.5,313.8 703.7,295.1 726.8,262.4 750.0,295.8" fill="none" stroke="#2ca02c" stroke-width="2"/>
<circle cx="78.0" cy="539.4" r="3" fill="#2ca02c"/>
<circle cx="193.9" cy="505.5" r="3" fill="#2ca02c"/>
<circle cx="309.7" cy="470.0" r="3" fill="#2ca02c"/>
<circle cx="425.6" cy="428.9" r="3" fill="#2ca02c"/>
<circle cx="541.4" cy="383.1" r="3" fill="#2ca02c"/>
<circle cx="657.3" cy="236.4" r="3" fill="#2ca02c"/>
<rect x="780" y="116" width="14" height="4" fill="#2ca02c"/>
<text x="802" y="121" font-family="Arial" font-size="12">String quicksort</text>
<polyline points="78.0,537.8 101.2,530.4 124.3,523.1 147.5,511.7 170.7,504.6 193.9,491.8 217.0,478.3 240.2,463.6 263.4,460.9 286.6,453.7 309.7,441.0 332.9,428.2 356.1,415.1 379.2,407.7 402.4,390.1 425.6,379.5 448.8,371.4 471.9,360.9 495.1,351.8 518.3,339.6 541.4,323.5 564.6,321.5 587.8,308.4 611.0,291.1 634.1,283.6 657.3,90.3 680.5,224.6 703.7,180.9 726.8,104.4 750.0,214.9" fill="none" stroke="#9467bd" stroke-width="2"/>
<circle cx="78.0" cy="537.8" r="3" fill="#9467bd"/>
<circle cx="193.9" cy="491.8" r="3" fill="#9467bd"/>
<circle cx="309.7" cy="441.0" r="3" fill="#9467bd"/>
<circle cx="425.6" cy="379.5" r="3" fill="#9467bd"/>
<circle cx="541.4" cy="323.5" r="3" fill="#9467bd"/>
<circle cx="657.3" cy="90.3" r="3" fill="#9467bd"/>
<rect x="780" y="140" width="14" height="4" fill="#9467bd"/>
<text x="802" y="145" font-family="Arial" font-size="12">String mergesort LCP</text>
<polyline points="78.0,536.3 101.2,529.9 124.3,523.3 147.5,516.8 170.7,511.1 193.9,504.4 217.0,494.8 240.2,488.0 263.4,478.8 286.6,478.1 309.7,471.9 332.9,459.2 356.1,455.9 379.2,452.2 402.4,439.3 425.6,435.5 448.8,426.4 471.9,425.3 495.1,416.7 518.3,410.9 541.4,400.8 564.6,392.9 587.8,393.2 611.0,380.5 634.1,379.6 657.3,325.5 680.5,354.8 703.7,287.4 726.8,304.7 750.0,344.8" fill="none" stroke="#ff7f0e" stroke-width="2"/>
<circle cx="78.0" cy="536.3" r="3" fill="#ff7f0e"/>
<circle cx="193.9" cy="504.4" r="3" fill="#ff7f0e"/>
<circle cx="309.7" cy="471.9" r="3" fill="#ff7f0e"/>
<circle cx="425.6" cy="435.5" r="3" fill="#ff7f0e"/>
<circle cx="541.4" cy="400.8" r="3" fill="#ff7f0e"/>
<circle cx="657.3" cy="325.5" r="3" fill="#ff7f0e"/>
<rect x="780" y="164" width="14" height="4" fill="#ff7f0e"/>
<text x="802" y="169" font-family="Arial" font-size="12">MSD radix</text>
<polyline points="78.0,538.8 101.2,534.1 124.3,529.1 147.5,523.3 170.7,517.7 193.9,511.0 217.0,504.5 240.2,498.9 263.4,494.4 286.6,485.5 309.7,480.9 332.9,476.9 356.1,468.3 379.2,464.3 402.4,457.5 425.6,453.4 448.8,446.3 471.9,440.2 495.1,433.5 518.3,426.1 541.4,423.9 564.6,418.8 587.8,412.9 611.0,405.7 634.1,396.8 657.3,371.1 680.5,379.7 703.7,357.4 726.8,351.5 750.0,365.9" fill="none" stroke="#17becf" stroke-width="2"/>
<circle cx="78.0" cy="538.8" r="3" fill="#17becf"/>
<circle cx="193.9" cy="511.0" r="3" fill="#17becf"/>
<circle cx="309.7" cy="480.9" r="3" fill="#17becf"/>
<circle cx="425.6" cy="453.4" r="3" fill="#17becf"/>
<circle cx="541.4" cy="423.9" r="3" fill="#17becf"/>
<circle cx="657.3" cy="371.1" r="3" fill="#17becf"/>
<rect x="780" y="188" width="14" height="4" fill="#17becf"/>
<text x="802" y="193" font-family="Arial" font-size="12">MSD + string QS</text>
</svg>